<svg width="184" height="24" viewBox="0 0 184 24" fill="none" xmlns="http://www.w3.org/2000/svg">
<path d="M177.807 16.3972C177.164 15.2066 176.101 13.3883 174.619 10.9424L172.46 13.5012L172.567 16.5802L167.788 16.7471C167.794 13.9781 167.755 11.3891 167.67 8.98001C167.586 6.57095 167.445 3.98548 167.246 1.22362L172.025 1.05673L172.244 7.32172C174.508 4.64512 176.111 2.49825 177.054 0.881113L183.273 0.663944L177.46 7.54634C178.404 8.91203 179.462 10.3951 180.632 11.9955C181.816 13.5955 182.883 14.9926 183.834 16.1868L177.807 16.3972Z" fill="black"/>
<path d="M156.631 1.35875C159.037 1.27474 160.949 1.53624 162.366 2.14326C163.783 2.73602 164.787 3.60011 165.378 4.73554C165.981 5.85626 166.311 7.25053 166.369 8.91834C166.425 10.5006 166.153 11.8945 165.555 13.1C164.956 14.3055 164.028 15.2585 162.772 15.9589C161.515 16.645 159.952 17.0207 158.084 17.0859C156.945 17.1257 155.787 17.1662 154.609 17.2073C153.432 17.2484 152.242 17.2828 151.039 17.3106C151.043 14.4988 151.003 11.8812 150.918 9.45791C150.832 7.00609 150.692 4.44913 150.496 1.78706C152.014 1.59133 154.059 1.44856 156.631 1.35875ZM158.472 12.8121C159.662 12.7706 160.445 12.4221 160.819 11.7668C161.193 11.1115 161.361 10.2208 161.321 9.09463C161.284 8.01126 161.042 7.14196 160.596 6.48673C160.163 5.83105 159.371 5.52332 158.219 5.56354C156.978 5.60688 156.052 5.68204 155.441 5.78902L155.689 12.9093L158.472 12.8121Z" fill="black"/>
<path d="M149.348 1.86976C149.342 4.28195 149.387 6.86364 149.484 9.61482C149.58 12.3803 149.715 14.9659 149.889 17.3719L143.017 17.6118L137.965 6.09934L138.718 17.762L133.785 17.9342C133.791 15.1652 133.752 12.5762 133.668 10.1671C133.584 7.77232 133.443 5.19398 133.244 2.43212L140.307 2.18546L145.39 14.018L144.645 2.03398L149.348 1.86976Z" fill="black"/>
<path d="M121.916 14.4311C126.778 14.2328 130.3 14.0313 132.484 13.8266C132.415 14.4142 132.378 15.022 132.375 15.6501C132.383 16.2635 132.404 17.0406 132.437 17.9814L117.523 18.5022C117.529 15.7332 117.489 13.1442 117.405 10.7351C117.321 8.32607 117.18 5.74061 116.981 2.97875L131.895 2.45795L132.03 6.32813L121.646 6.69075L121.717 8.74344C122.332 8.73625 123.241 8.71165 124.444 8.66965C126.478 8.5986 128.582 8.48233 130.754 8.32083L130.883 11.9986C128.704 11.989 126.598 12.0198 124.563 12.0908C123.36 12.1328 122.452 12.1717 121.838 12.2074L121.916 14.4311Z" fill="black"/>
<path d="M107.013 14.5451C110.723 14.387 113.792 14.2085 116.219 14.0096C116.078 14.7424 116 15.4444 115.985 16.1158C115.97 16.7871 115.979 17.6003 116.013 18.5553L102.481 19.0279C102.487 16.2589 102.447 13.6698 102.363 11.2608C102.279 8.85171 102.138 6.26625 101.939 3.50439L106.622 3.34084L107.013 14.5451Z" fill="black"/>
<path d="M92.7812 19.5804C89.8509 19.6828 87.6701 19.0525 86.2389 17.6895C84.8071 16.3123 84.0464 14.3407 83.9568 11.7749C83.8682 9.2375 84.4836 7.23217 85.803 5.75888C87.1352 4.28514 89.2729 3.49688 92.216 3.3941C95.1719 3.29088 97.3593 3.9281 98.7783 5.30577C100.21 6.68299 100.97 8.64028 101.059 11.1776C101.149 13.7578 100.534 15.7773 99.2141 17.2364C97.8942 18.6954 95.7499 19.4768 92.7812 19.5804ZM92.6289 15.2185C94.0493 15.1689 95.0625 14.8338 95.6686 14.2132C96.2742 13.5783 96.5546 12.6194 96.5098 11.3365C96.466 10.0821 96.1199 9.15933 95.4715 8.56827C94.8231 7.97721 93.7887 7.70648 92.3683 7.75608C90.9607 7.80523 89.9541 8.14723 89.3485 8.78209C88.7429 9.41694 88.462 10.3616 88.5058 11.616C88.5501 12.8847 88.8965 13.8146 89.5449 14.4056C90.1933 14.9967 91.2213 15.2676 92.6289 15.2185Z" fill="black"/>
<path d="M79.0029 19.8474C78.3591 18.6568 77.2963 16.8385 75.8144 14.3926L73.6553 16.9514L73.7629 20.0304L68.9835 20.1973C68.9893 17.4283 68.9501 14.8393 68.866 12.4302C68.7819 10.0211 68.6403 7.43568 68.4414 4.67382L73.2208 4.50692L73.4395 10.7719C75.7034 8.09532 77.3068 5.94845 78.2496 4.33131L84.4686 4.11414L78.6554 10.9965C79.5999 12.3622 80.6574 13.8453 81.8279 15.4457C83.0112 17.0457 84.0785 18.4428 85.0299 19.637L79.0029 19.8474Z" fill="black"/>
<path d="M51.5714 18.9641C51.9811 18.2219 52.3158 17.5323 52.5754 16.8952C52.8478 16.2577 53.1039 15.5209 53.3437 14.6847C54.2727 15.2375 55.3443 15.6568 56.5586 15.9426C57.7729 16.2285 58.8983 16.3533 59.9347 16.3171C60.9968 16.28 61.7419 16.1541 62.17 15.9393C62.5976 15.7103 62.8072 15.4746 62.7987 15.2323C62.7684 14.3628 61.5631 13.9696 59.183 14.0527C56.5726 14.1438 54.6684 13.9106 53.4702 13.353C52.2716 12.7812 51.6486 11.8181 51.6013 10.4639C51.5341 8.53953 52.2011 7.09615 53.6025 6.13379C55.0038 5.17144 56.8497 4.65027 59.1402 4.57028C60.471 4.52381 61.8405 4.66866 63.2487 5.00483C64.6692 5.32631 65.954 5.79524 67.1029 6.41164C66.7647 7.36542 66.4145 8.52656 66.0523 9.89507C65.9855 10.1828 65.929 10.3989 65.8828 10.5432C65.2097 9.98158 64.2075 9.53132 62.8761 9.19246C61.5441 8.83936 60.3727 8.68045 59.3618 8.71575C58.1462 8.7582 57.3305 8.87946 56.9147 9.07952C56.4984 9.26532 56.2962 9.52928 56.3081 9.8714C56.3201 10.2135 56.6177 10.4814 57.201 10.6751C57.7966 10.8542 58.6446 10.9244 59.7451 10.886C62.4579 10.7913 64.4407 11.0717 65.6935 11.7273C66.9458 12.3686 67.5969 13.402 67.6466 14.8275C67.7163 16.8232 67.114 18.2857 65.8397 19.2151C64.5648 20.1302 62.603 20.634 59.9542 20.7265C58.5338 20.7761 57.0819 20.6556 55.5984 20.3648C54.1144 20.0599 52.7721 19.5929 51.5714 18.9641Z" fill="black"/>
<path d="M49.9448 5.29849L50.2084 12.8464C50.3015 15.5121 49.7521 17.5722 48.5601 19.0268C47.3805 20.4666 45.4535 21.2333 42.7791 21.3266C41.2435 21.3803 39.8145 21.1804 38.4918 20.7271C37.182 20.2733 36.0077 19.6649 34.9689 18.9019C35.1812 18.0096 35.3499 17.1546 35.4751 16.3367C35.6003 15.5188 35.6843 14.6238 35.7272 13.6518C37.0866 14.789 38.3308 15.5662 39.46 15.9834C40.5892 16.4007 41.6593 16.5917 42.6701 16.5564C43.7194 16.5198 44.4588 16.2299 44.8882 15.6868C45.3177 15.1438 45.5164 14.2305 45.4844 12.9472L45.4277 11.3221C45.347 9.01283 45.2212 7.06193 45.0503 5.46941L49.9448 5.29849Z" fill="black"/>
<path d="M34.5586 7.11991L33.2681 8.68497C34.1052 9.91169 34.5584 11.5158 34.6276 13.4972C34.7177 16.0773 34.1028 18.0969 32.7829 19.5559C31.463 21.015 29.3187 21.7963 26.35 21.9C24.9168 21.95 23.676 21.8221 22.6276 21.5162L22.0004 22.266L17.7488 20.4877L18.9663 19.0322C18.0765 17.7645 17.5962 16.1186 17.5256 14.0944C17.4369 11.557 18.0523 9.55171 19.3718 8.07841C20.704 6.60467 22.8416 5.81641 25.7847 5.71364C27.2691 5.6618 28.5552 5.80243 29.643 6.13552L30.3071 5.34163L34.5586 7.11991ZM22.0746 13.9355C22.088 14.3204 22.1337 14.7113 22.2116 15.1082L26.3793 10.0816C26.2892 10.0704 26.1418 10.0685 25.9371 10.0756C24.5295 10.1248 23.5229 10.4668 22.9173 11.1016C22.3117 11.7365 22.0308 12.6811 22.0746 13.9355ZM30.0786 13.656C30.0651 13.2712 30.0278 12.9371 29.9667 12.6537L25.9097 17.5481L26.1976 17.538C27.618 17.4884 28.6313 17.1533 29.2374 16.5327C29.843 15.8979 30.1234 14.939 30.0786 13.656Z" fill="black"/>
<path d="M16.1079 6.50153C16.1025 8.91372 16.1481 11.5025 16.2446 14.268C16.3412 17.0334 16.4763 19.6191 16.65 22.025L12.1394 22.1825L11.9363 16.3666L4.87283 16.6132L5.07593 22.4292L0.565286 22.5867C0.571084 19.8177 0.53192 17.2287 0.447793 14.8196C0.363667 12.4105 0.222134 9.82508 0.0231934 7.06322L4.53383 6.90571L4.73693 12.7217L11.8004 12.475L11.5973 6.65905L16.1079 6.50153Z" fill="black"/>
</svg>
